<svg xmlns="http://www.w3.org/2000/svg" width="96" height="24" viewBox="0 0 95 24">
  <defs>
    <!-- 图标渐变 -->
    <radialGradient id="b" cx="30%" cy="20%" r="80%">
      <stop offset="0%" stop-color="oklch(0.77 0.15 163.22)" stop-opacity="1" />
      <stop offset="40%" stop-color="oklch(0.65 0.10 163.22)" stop-opacity="1" />
      <stop offset="100%" stop-color="oklch(0.55 0.08 163.22)" stop-opacity="1" />
    </radialGradient>

    <!-- 文字渐变 -->
    <linearGradient id="textGradient" x1="0%" y1="0%" x2="100%" y2="0%">
      <stop offset="0%" stop-color="oklch(0.9485 0.0049 224)" />
      <stop offset="40%" stop-color="oklch(0.6544 0.1677 150.07)" />
      <stop offset="100%" stop-color="oklch(0.5677 0.01 286.07)" />
    </linearGradient>

    <!-- 阴影 -->
    <filter id="a" x="-50%" y="-50%" width="200%" height="200%">
      <feDropShadow dx="0" dy="0.5" stdDeviation="0.8" flood-color="oklch(0.21 0.04 265.75)" flood-opacity=".25"/>
    </filter>
  </defs>

  <!-- 图标 -->
  <g transform="translate(12 12)" filter="url(#a)">
    <g fill="url(#b)" stroke="oklch(0.65 0.10 163.22)" stroke-width="0.1" stroke-opacity=".6">
      <path d="M0-8.5q-2.8-3.8-5.1 1.1 1.1 5.7 3.4 6.8 2.3-0.8 2.3-3ZM9-2.8q2.8-3.8-2.5-4.5-5.1 2.8-5.7 5.1 1.4 1.9 3.4 1.1ZM5.7 7.5Q10.4 8.8 8.8 3.8 5.1-0.2 2.5-0.1q-1.3 1.9-0.1 3.8ZM-5.7 7.5q-0.2 5.1 5.1 2.3 2.8-5.7 1.9-7.5-2.3-0.8-3.6 1.1ZM-9-2.8q-5.1 1.5-0.8 5.3 6 0.9 7.7-0.9-0.1-2.5-2.3-3Z" />
    </g>
  </g>

  <!-- 文字 -->
  <text x="30" y="17" font-size="16" font-family="Poppins, sans-serif" font-weight="700" fill="url(#textGradient)">
    Poetora
  </text>
</svg>
